<svg width="50" height="50" viewBox="0 0 50 50" fill="none" xmlns="http://www.w3.org/2000/svg">
<path d="M25 9.375C14.5834 9.375 5.68754 15.8542 2.08337 25C5.68754 34.1458 14.5834 40.625 25 40.625C35.4167 40.625 44.3125 34.1458 47.9167 25C44.3125 15.8542 35.4167 9.375 25 9.375ZM25 35.4167C19.25 35.4167 14.5834 30.75 14.5834 25C14.5834 19.25 19.25 14.5833 25 14.5833C30.75 14.5833 35.4167 19.25 35.4167 25C35.4167 30.75 30.75 35.4167 25 35.4167ZM25 18.75C21.5417 18.75 18.75 21.5417 18.75 25C18.75 28.4583 21.5417 31.25 25 31.25C28.4584 31.25 31.25 28.4583 31.25 25C31.25 21.5417 28.4584 18.75 25 18.75Z" fill="#59463D"/>
</svg>
