<svg width="25" height="25" viewBox="0 0 25 25" fill="none" xmlns="http://www.w3.org/2000/svg">
<g clip-path="url(#clip0_89_1624)">
<path d="M21.8541 2.66705C21.1867 2.00734 20.3093 1.60233 19.3743 1.5224C18.4392 1.44248 17.5058 1.69269 16.7361 2.22955C19.2102 3.25967 21.2314 5.14526 22.4305 7.54205C22.8934 6.78203 23.0881 5.8888 22.9837 5.00508C22.8792 4.12136 22.4815 3.29817 21.8541 2.66705Z" fill="#59463D" stroke="#59463D"/>
<path d="M7.93057 2.38191C7.16407 1.77314 6.20125 1.466 5.22382 1.51846C4.24639 1.57091 3.32196 1.97933 2.62502 2.66663C1.93382 3.3624 1.52445 4.28928 1.47573 5.26881C1.42701 6.24834 1.74238 7.21126 2.36113 7.97219C3.47538 5.49304 5.4556 3.50541 7.93057 2.38191Z" fill="#59463D" stroke="#59463D"/>
<path d="M11.3888 2.84061C9.57573 3.05241 7.85888 3.77039 6.43476 4.91237C5.01064 6.05435 3.9368 7.5742 3.33612 9.29798C2.73544 11.0218 2.6322 12.8798 3.0382 14.6595C3.44421 16.4393 4.34306 18.0687 5.63189 19.3614L3.86106 21.1323C3.79677 21.1979 3.74604 21.2756 3.71177 21.3609C3.6775 21.4462 3.66035 21.5373 3.66132 21.6292C3.66229 21.7211 3.68135 21.8119 3.7174 21.8964C3.75346 21.981 3.80582 22.0576 3.87148 22.1219C3.93714 22.1862 4.01482 22.2369 4.10009 22.2712C4.18535 22.3054 4.27654 22.3226 4.36843 22.3216C4.46032 22.3206 4.55112 22.3016 4.63565 22.2655C4.72017 22.2295 4.79677 22.1771 4.86106 22.1114L6.70828 20.2642C8.39754 21.5425 10.4604 22.2296 12.5788 22.2196C14.6972 22.2096 16.7534 21.5029 18.4305 20.2087L20.3333 22.1114C20.4661 22.2252 20.637 22.2847 20.8118 22.2779C20.9866 22.2712 21.1524 22.1987 21.276 22.075C21.3997 21.9514 21.4722 21.7856 21.4789 21.6108C21.4857 21.436 21.4262 21.2651 21.3125 21.1323L19.4444 19.292C20.8462 17.856 21.7693 16.0215 22.0871 14.04C22.4049 12.0586 22.1017 10.0273 21.2192 8.22503C20.3367 6.42273 18.9181 4.93768 17.158 3.97364C15.398 3.00961 13.3827 2.61383 11.3888 2.84061ZM13.5972 20.7642C11.8712 20.9903 10.1178 20.6702 8.58298 19.8488C7.04822 19.0275 5.80918 17.7462 5.0398 16.1847C4.27042 14.6232 4.00932 12.86 4.29316 11.1426C4.577 9.4252 5.39153 7.83978 6.62241 6.6089C7.85328 5.37803 9.43871 4.5635 11.1561 4.27966C12.8736 3.99581 14.6367 4.25691 16.1982 5.02629C17.7597 5.79567 19.041 7.03471 19.8623 8.56948C20.6837 10.1042 21.0038 11.8577 20.7777 13.5837C20.5392 15.4045 19.706 17.0955 18.4075 18.394C17.109 19.6925 15.418 20.5257 13.5972 20.7642Z" fill="#59463D" stroke="#59463D"/>
<path d="M17.3055 14.1254L13.0972 12.0421V6.59766C13.0972 6.4319 13.0313 6.27292 12.9141 6.15571C12.7969 6.0385 12.6379 5.97266 12.4722 5.97266C12.3064 5.97266 12.1474 6.0385 12.0302 6.15571C11.913 6.27292 11.8472 6.4319 11.8472 6.59766V12.8477L16.7499 15.2782C16.8991 15.351 17.0711 15.3615 17.228 15.3074C17.385 15.2534 17.514 15.1392 17.5868 14.99C17.6595 14.8408 17.67 14.6689 17.616 14.5119C17.5619 14.355 17.4477 14.226 17.2986 14.1532L17.3055 14.1254Z" fill="#59463D" stroke="#59463D"/>
</g>
<defs>
<clipPath id="clip0_89_1624">
<rect width="25" height="25" fill="white"/>
</clipPath>
</defs>
</svg>
