<svg width="20" height="20" viewBox="0 0 20 20" fill="none" xmlns="http://www.w3.org/2000/svg">
<path d="M2.55329 6.25834C3.24663 4.8777 4.31027 3.71709 5.62532 2.90623C6.94037 2.09536 8.45501 1.66618 9.99996 1.66667C12.2458 1.66667 14.1325 2.49167 15.575 3.8375L13.1858 6.2275C12.3216 5.40167 11.2233 4.98084 9.99996 4.98084C7.82913 4.98084 5.99163 6.4475 5.33746 8.41667C5.17079 8.91667 5.07579 9.45 5.07579 10C5.07579 10.55 5.17079 11.0833 5.33746 11.5833C5.99246 13.5533 7.82913 15.0192 9.99996 15.0192C11.1208 15.0192 12.075 14.7233 12.8216 14.2233C13.2545 13.9383 13.6251 13.5685 13.911 13.1362C14.1969 12.704 14.3921 12.2182 14.485 11.7083H9.99996V8.485H17.8483C17.9466 9.03 18 9.59834 18 10.1892C18 12.7275 17.0916 14.8642 15.515 16.3142C14.1366 17.5875 12.25 18.3333 9.99996 18.3333C8.90549 18.3338 7.82166 18.1185 6.81041 17.6999C5.79917 17.2813 4.88034 16.6674 4.10643 15.8935C3.33252 15.1196 2.71871 14.2008 2.30007 13.1895C1.88144 12.1783 1.66619 11.0945 1.66663 10C1.66663 8.655 1.98829 7.38334 2.55329 6.25834Z" fill="white"/>
</svg>
