<svg width="50" height="50" viewBox="0 0 50 50" fill="none" xmlns="http://www.w3.org/2000/svg">
<path d="M12.5 20.8334H16.6666C17.7717 20.8334 18.8315 21.2724 19.6129 22.0538C20.3943 22.8352 20.8333 23.895 20.8333 25V35.4167H14.5833C13.4782 35.4167 12.4184 34.9777 11.637 34.1963C10.8556 33.4149 10.4166 32.3551 10.4166 31.25C10.4166 30.145 10.8556 29.0852 11.637 28.3038C12.4184 27.5224 13.4782 27.0834 14.5833 27.0834H20.8333M29.1666 14.5834V35.4167" stroke="#59463D" stroke-width="4" stroke-linecap="round" stroke-linejoin="round"/>
<path d="M35.4166 20.8334H33.3333C31.0321 20.8334 29.1666 22.6989 29.1666 25V31.25C29.1666 33.5512 31.0321 35.4167 33.3333 35.4167H35.4166C37.7178 35.4167 39.5833 33.5512 39.5833 31.25V25C39.5833 22.6989 37.7178 20.8334 35.4166 20.8334Z" stroke="#59463D" stroke-width="4" stroke-linecap="round" stroke-linejoin="round"/>
</svg>
