<svg width="50" height="50" viewBox="0 0 50 50" fill="none" xmlns="http://www.w3.org/2000/svg">
<path d="M22.6562 35.9375C22.6562 36.5591 22.4093 37.1553 21.9698 37.5948C21.5302 38.0344 20.9341 38.2813 20.3125 38.2813H16.4062V42.1875C16.4062 42.8091 16.1593 43.4053 15.7198 43.8448C15.2802 44.2844 14.6841 44.5313 14.0625 44.5313C13.4409 44.5313 12.8448 44.2844 12.4052 43.8448C11.9657 43.4053 11.7188 42.8091 11.7188 42.1875V38.2813H7.8125C7.1909 38.2813 6.59476 38.0344 6.15522 37.5948C5.71568 37.1553 5.46875 36.5591 5.46875 35.9375C5.46875 35.3159 5.71568 34.7198 6.15522 34.2803C6.59476 33.8407 7.1909 33.5938 7.8125 33.5938H11.7188V29.6875C11.7188 29.0659 11.9657 28.4698 12.4052 28.0303C12.8448 27.5907 13.4409 27.3438 14.0625 27.3438C14.6841 27.3438 15.2802 27.5907 15.7198 28.0303C16.1593 28.4698 16.4062 29.0659 16.4062 29.6875V33.5938H20.3125C20.9341 33.5938 21.5302 33.8407 21.9698 34.2803C22.4093 34.7198 22.6562 35.3159 22.6562 35.9375ZM20.3125 11.7188H7.8125C7.1909 11.7188 6.59476 11.9657 6.15522 12.4053C5.71568 12.8448 5.46875 13.4409 5.46875 14.0625C5.46875 14.6841 5.71568 15.2803 6.15522 15.7198C6.59476 16.1594 7.1909 16.4063 7.8125 16.4063H20.3125C20.9341 16.4063 21.5302 16.1594 21.9698 15.7198C22.4093 15.2803 22.6562 14.6841 22.6562 14.0625C22.6562 13.4409 22.4093 12.8448 21.9698 12.4053C21.5302 11.9657 20.9341 11.7188 20.3125 11.7188ZM29.6875 34.3946H42.1875C42.8091 34.3946 43.4052 34.1476 43.8448 33.7081C44.2843 33.2686 44.5312 32.6724 44.5312 32.0508C44.5312 31.4292 44.2843 30.8331 43.8448 30.3935C43.4052 29.954 42.8091 29.7071 42.1875 29.7071H29.6875C29.0659 29.7071 28.4698 29.954 28.0302 30.3935C27.5907 30.8331 27.3438 31.4292 27.3438 32.0508C27.3438 32.6724 27.5907 33.2686 28.0302 33.7081C28.4698 34.1476 29.0659 34.3946 29.6875 34.3946ZM42.1875 37.4805H29.6875C29.0659 37.4805 28.4698 37.7274 28.0302 38.167C27.5907 38.6065 27.3438 39.2027 27.3438 39.8243C27.3438 40.4459 27.5907 41.042 28.0302 41.4815C28.4698 41.9211 29.0659 42.168 29.6875 42.168H42.1875C42.8091 42.168 43.4052 41.9211 43.8448 41.4815C44.2843 41.042 44.5312 40.4459 44.5312 39.8243C44.5312 39.2027 44.2843 38.6065 43.8448 38.167C43.4052 37.7274 42.8091 37.4805 42.1875 37.4805ZM29.5898 20.4102C30.0321 20.8467 30.6286 21.0915 31.25 21.0915C31.8714 21.0915 32.4679 20.8467 32.9102 20.4102L35.9375 17.3828L38.9648 20.4102C39.4071 20.8467 40.0036 21.0915 40.625 21.0915C41.2464 21.0915 41.8429 20.8467 42.2852 20.4102C42.5037 20.1925 42.677 19.9337 42.7953 19.6488C42.9136 19.3639 42.9745 19.0585 42.9745 18.75C42.9745 18.4416 42.9136 18.1361 42.7953 17.8512C42.677 17.5664 42.5037 17.3076 42.2852 17.0899L39.2578 14.0625L42.2852 11.0352C42.7255 10.5949 42.9728 9.99772 42.9728 9.37504C42.9728 8.75236 42.7255 8.15518 42.2852 7.71488C41.8449 7.27458 41.2477 7.02722 40.625 7.02722C40.0023 7.02722 39.4051 7.27458 38.9648 7.71488L35.9375 10.7422L32.9102 7.71488C32.6921 7.49687 32.4333 7.32393 32.1485 7.20594C31.8636 7.08795 31.5583 7.02722 31.25 7.02722C30.9417 7.02722 30.6364 7.08795 30.3515 7.20594C30.0667 7.32393 29.8079 7.49687 29.5898 7.71488C29.1495 8.15518 28.9022 8.75236 28.9022 9.37504C28.9022 9.99772 29.1495 10.5949 29.5898 11.0352L32.6172 14.0625L29.5898 17.0899C29.3713 17.3076 29.198 17.5664 29.0797 17.8512C28.9614 18.1361 28.9005 18.4416 28.9005 18.75C28.9005 19.0585 28.9614 19.3639 29.0797 19.6488C29.198 19.9337 29.3713 20.1925 29.5898 20.4102Z" fill="#59463D"/>
</svg>
