<svg width="50" height="50" viewBox="0 0 50 50" fill="none" xmlns="http://www.w3.org/2000/svg">
<path d="M36.4584 29.8542C38.1042 29.8542 39.8542 30.0208 41.6667 30.3542V33.4792C40.375 33.1458 38.625 32.9792 36.4584 32.9792C32.5 32.9792 29.3959 33.6667 27.0834 35.0417V31.5208C29.5209 30.4167 32.6459 29.8542 36.4584 29.8542ZM27.0834 25.9583C29.7709 24.8542 32.8959 24.3125 36.4584 24.3125C38.1042 24.3125 39.8542 24.4583 41.6667 24.7917V27.9167C40.375 27.5833 38.625 27.4167 36.4584 27.4167C32.5 27.4167 29.3959 28.125 27.0834 29.4792M36.4584 21.875C32.5 21.875 29.3959 22.5417 27.0834 23.9583V20.5C29.6459 19.3333 32.7709 18.75 36.4584 18.75C38.1042 18.75 39.8542 18.9167 41.6667 19.2292V22.4583C40.125 22.0625 38.3542 21.875 36.4584 21.875ZM43.75 38.5417V14.5833C41.5834 13.8958 39.1459 13.5417 36.4584 13.5417C32.1875 13.5417 28.375 14.5833 25 16.6667V40.625C28.375 38.5417 32.1875 37.5 36.4584 37.5C38.9375 37.5 41.375 37.8333 43.75 38.5417ZM36.4584 9.375C41.3542 9.375 45.1875 10.4167 47.9167 12.5V42.8333C47.9167 43.0833 47.8125 43.3333 47.5834 43.5625C47.3542 43.75 47.1042 43.9167 46.875 43.9167C46.6459 43.9167 46.4792 43.875 46.3542 43.8125C43.6875 42.375 40.375 41.6667 36.4584 41.6667C32.1875 41.6667 28.375 42.7083 25 44.7917C22.2084 42.7083 18.3959 41.6667 13.5417 41.6667C10.0834 41.6667 6.77087 42.4167 3.64587 43.8958C3.58337 43.9167 3.50004 43.9167 3.39587 43.9583C3.31254 43.9792 3.22921 44 3.12504 44C2.89587 44 2.64587 43.9167 2.41671 43.75C2.31335 43.6584 2.2303 43.5463 2.17289 43.4207C2.11548 43.2951 2.08499 43.1589 2.08337 43.0208V12.5C4.87504 10.4167 8.70837 9.375 13.5417 9.375C18.3959 9.375 22.2084 10.4167 25 12.5C27.7917 10.4167 31.6042 9.375 36.4584 9.375Z" fill="#59463D"/>
</svg>
