<svg width="30" height="30" viewBox="0 0 30 30" fill="none" xmlns="http://www.w3.org/2000/svg">
<path d="M28.3085 14.3778C27.0657 8.75925 25.1954 5.76042 22.421 4.94128C21.8378 4.77021 21.2328 4.68475 20.6251 4.68757C19.8217 4.68757 19.1221 4.88327 18.3821 5.09069C17.4903 5.34089 16.4772 5.62507 15.0001 5.62507C13.5229 5.62507 12.5092 5.34147 11.6157 5.09128C10.8751 4.88327 10.176 4.68757 9.37506 4.68757C8.7466 4.68539 8.12088 4.77058 7.51588 4.94069C4.75611 5.75632 2.88697 8.75397 1.62604 14.3743C0.270177 20.4223 0.937559 24.2409 3.49752 25.1268C3.84843 25.2505 4.21764 25.3143 4.58971 25.3155C6.34342 25.3155 7.74967 23.8548 8.71061 22.6589C9.79635 21.3053 11.0672 20.6186 15.0001 20.6186C18.5128 20.6186 19.9665 21.095 21.2221 22.6589C22.0114 23.6421 22.7573 24.33 23.5014 24.763C24.4911 25.3383 25.4801 25.4661 26.4405 25.1362C27.9534 24.62 28.8206 23.2553 29.0186 21.0792C29.1692 19.4104 28.9372 17.2184 28.3085 14.3778ZM12.1876 14.0626H10.3126V15.9376C10.3126 16.1862 10.2138 16.4247 10.038 16.6005C9.86216 16.7763 9.6237 16.8751 9.37506 16.8751C9.12642 16.8751 8.88796 16.7763 8.71215 16.6005C8.53633 16.4247 8.43756 16.1862 8.43756 15.9376V14.0626H6.56256C6.31392 14.0626 6.07546 13.9638 5.89965 13.788C5.72383 13.6122 5.62506 13.3737 5.62506 13.1251C5.62506 12.8764 5.72383 12.638 5.89965 12.4622C6.07546 12.2863 6.31392 12.1876 6.56256 12.1876H8.43756V10.3126C8.43756 10.0639 8.53633 9.82547 8.71215 9.64965C8.88796 9.47384 9.12642 9.37507 9.37506 9.37507C9.6237 9.37507 9.86216 9.47384 10.038 9.64965C10.2138 9.82547 10.3126 10.0639 10.3126 10.3126V12.1876H12.1876C12.4362 12.1876 12.6747 12.2863 12.8505 12.4622C13.0263 12.638 13.1251 12.8764 13.1251 13.1251C13.1251 13.3737 13.0263 13.6122 12.8505 13.788C12.6747 13.9638 12.4362 14.0626 12.1876 14.0626ZM17.1094 14.2969C16.8777 14.2969 16.6511 14.2282 16.4584 14.0994C16.2657 13.9707 16.1155 13.7877 16.0268 13.5735C15.9381 13.3594 15.9149 13.1238 15.9601 12.8964C16.0053 12.6691 16.1169 12.4603 16.2808 12.2964C16.4447 12.1325 16.6535 12.0209 16.8808 11.9757C17.1081 11.9305 17.3438 11.9537 17.5579 12.0424C17.772 12.1311 17.955 12.2813 18.0838 12.474C18.2126 12.6667 18.2813 12.8933 18.2813 13.1251C18.2813 13.4359 18.1578 13.7339 17.9381 13.9537C17.7183 14.1735 17.4202 14.2969 17.1094 14.2969ZM19.6876 16.8751C19.4557 16.8751 19.229 16.8063 19.0362 16.6774C18.8434 16.5485 18.6932 16.3653 18.6046 16.151C18.516 15.9367 18.493 15.7009 18.5384 15.4735C18.5839 15.2461 18.6958 15.0373 18.86 14.8735C19.0241 14.7097 19.2332 14.5984 19.4607 14.5535C19.6883 14.5086 19.924 14.5322 20.1381 14.6214C20.3521 14.7105 20.535 14.8612 20.6634 15.0543C20.7918 15.2474 20.86 15.4742 20.8594 15.7061C20.8587 16.0164 20.7349 16.3137 20.5152 16.5329C20.2955 16.752 19.9979 16.8751 19.6876 16.8751ZM19.6876 11.7188C19.4558 11.7188 19.2292 11.6501 19.0365 11.5213C18.8438 11.3926 18.6936 11.2095 18.6049 10.9954C18.5162 10.7813 18.493 10.5456 18.5382 10.3183C18.5834 10.091 18.695 9.88219 18.8589 9.7183C19.0228 9.55441 19.2316 9.4428 19.4589 9.39758C19.6863 9.35237 19.9219 9.37558 20.136 9.46427C20.3501 9.55297 20.5332 9.70317 20.6619 9.89588C20.7907 10.0886 20.8594 10.3152 20.8594 10.5469C20.8594 10.8577 20.736 11.1558 20.5162 11.3756C20.2964 11.5954 19.9984 11.7188 19.6876 11.7188ZM22.2657 14.2969C22.0339 14.2969 21.8073 14.2282 21.6146 14.0994C21.4219 13.9707 21.2717 13.7877 21.183 13.5735C21.0943 13.3594 21.0711 13.1238 21.1163 12.8964C21.1615 12.6691 21.2732 12.4603 21.437 12.2964C21.6009 12.1325 21.8097 12.0209 22.0371 11.9757C22.2644 11.9305 22.5 11.9537 22.7141 12.0424C22.9283 12.1311 23.1113 12.2813 23.2401 12.474C23.3688 12.6667 23.4376 12.8933 23.4376 13.1251C23.4376 13.4359 23.3141 13.7339 23.0943 13.9537C22.8746 14.1735 22.5765 14.2969 22.2657 14.2969Z" fill="#FFF3EE"/>
</svg>
