<svg width="30" height="30" viewBox="0 0 30 30" fill="none" xmlns="http://www.w3.org/2000/svg">
<path fill-rule="evenodd" clip-rule="evenodd" d="M20 11.25C20 12.5761 19.4732 13.8479 18.5355 14.7855C17.5979 15.7232 16.3261 16.25 15 16.25C13.6739 16.25 12.4021 15.7232 11.4645 14.7855C10.5268 13.8479 10 12.5761 10 11.25C10 9.92392 10.5268 8.65215 11.4645 7.71447C12.4021 6.77678 13.6739 6.25 15 6.25C16.3261 6.25 17.5979 6.77678 18.5355 7.71447C19.4732 8.65215 20 9.92392 20 11.25ZM17.5 11.25C17.5 11.913 17.2366 12.5489 16.7678 13.0178C16.2989 13.4866 15.663 13.75 15 13.75C14.337 13.75 13.7011 13.4866 13.2322 13.0178C12.7634 12.5489 12.5 11.913 12.5 11.25C12.5 10.587 12.7634 9.95107 13.2322 9.48223C13.7011 9.01339 14.337 8.75 15 8.75C15.663 8.75 16.2989 9.01339 16.7678 9.48223C17.2366 9.95107 17.5 10.587 17.5 11.25Z" fill="#FFF3EE"/>
<path fill-rule="evenodd" clip-rule="evenodd" d="M15 1.25C7.40625 1.25 1.25 7.40625 1.25 15C1.25 22.5938 7.40625 28.75 15 28.75C22.5938 28.75 28.75 22.5938 28.75 15C28.75 7.40625 22.5938 1.25 15 1.25ZM3.75 15C3.75 17.6125 4.64125 20.0175 6.135 21.9275C7.18404 20.5499 8.53737 19.4334 10.0893 18.6654C11.6412 17.8973 13.3497 17.4985 15.0812 17.5C16.7904 17.4984 18.4774 17.8869 20.0137 18.636C21.5499 19.385 22.895 20.4749 23.9462 21.8225C25.0293 20.402 25.7585 18.744 26.0736 16.9857C26.3887 15.2275 26.2805 13.4194 25.7581 11.7112C25.2357 10.003 24.314 8.44381 23.0694 7.16255C21.8247 5.88128 20.2928 4.91482 18.6005 4.34314C16.9081 3.77145 15.104 3.61096 13.3373 3.87497C11.5707 4.13897 9.89224 4.81986 8.44096 5.86132C6.98968 6.90277 5.80726 8.27484 4.99154 9.86399C4.17581 11.4532 3.75023 13.2137 3.75 15ZM15 26.25C12.4174 26.2539 9.91283 25.3654 7.91 23.735C8.71616 22.5809 9.78917 21.6386 11.0377 20.9884C12.2863 20.3381 13.6735 19.999 15.0812 20C16.4715 19.9989 17.8419 20.3295 19.0787 20.9643C20.3155 21.5991 21.383 22.5198 22.1925 23.65C20.1741 25.3334 17.6282 26.2537 15 26.25Z" fill="#FFF3EE"/>
</svg>
