<svg width="38" height="30" viewBox="0 0 38 30" fill="none" xmlns="http://www.w3.org/2000/svg">
<g clip-path="url(#clip0_70_745)">
<path d="M20.7305 3.16995L19.3477 0.36917C19.1191 -0.117158 18.4043 -0.134736 18.1523 0.36917L16.7695 3.16995L13.7051 3.6094C13.1602 3.69144 12.9258 4.36526 13.3301 4.76956L15.5566 6.93753L15.0293 9.99026C14.9473 10.5352 15.5098 10.9571 16.0137 10.7051L18.7617 9.25198L21.4922 10.6817C21.9961 10.9336 22.5645 10.5117 22.4766 9.96683L21.9492 6.91409L24.1758 4.76956C24.5742 4.37112 24.3457 3.69729 23.8008 3.6094L20.7363 3.16995H20.7305ZM15 15C13.9629 15 13.125 15.8379 13.125 16.875V28.125C13.125 29.1621 13.9629 30 15 30H22.5C23.5371 30 24.375 29.1621 24.375 28.125V16.875C24.375 15.8379 23.5371 15 22.5 15H15ZM1.875 18.75C0.837891 18.75 0 19.5879 0 20.625V28.125C0 29.1621 0.837891 30 1.875 30H9.375C10.4121 30 11.25 29.1621 11.25 28.125V20.625C11.25 19.5879 10.4121 18.75 9.375 18.75H1.875ZM26.25 24.375V28.125C26.25 29.1621 27.0879 30 28.125 30H35.625C36.6621 30 37.5 29.1621 37.5 28.125V24.375C37.5 23.3379 36.6621 22.5 35.625 22.5H28.125C27.0879 22.5 26.25 23.3379 26.25 24.375Z" fill="#FFF3EE"/>
</g>
<defs>
<clipPath id="clip0_70_745">
<rect width="37.5" height="30" fill="white"/>
</clipPath>
</defs>
</svg>
